%TF.GenerationSoftware,KiCad,Pcbnew,8.0.6-8.0.6-0~ubuntu24.04.1*%
%TF.CreationDate,2024-10-24T10:36:01+02:00*%
%TF.ProjectId,Projet1,50726f6a-6574-4312-9e6b-696361645f70,rev?*%
%TF.SameCoordinates,Original*%
%TF.FileFunction,Soldermask,Top*%
%TF.FilePolarity,Negative*%
%FSLAX46Y46*%
G04 Gerber Fmt 4.6, Leading zero omitted, Abs format (unit mm)*
G04 Created by KiCad (PCBNEW 8.0.6-8.0.6-0~ubuntu24.04.1) date 2024-10-24 10:36:01*
%MOMM*%
%LPD*%
G01*
G04 APERTURE LIST*
G04 Aperture macros list*
%AMRoundRect*
0 Rectangle with rounded corners*
0 $1 Rounding radius*
0 $2 $3 $4 $5 $6 $7 $8 $9 X,Y pos of 4 corners*
0 Add a 4 corners polygon primitive as box body*
4,1,4,$2,$3,$4,$5,$6,$7,$8,$9,$2,$3,0*
0 Add four circle primitives for the rounded corners*
1,1,$1+$1,$2,$3*
1,1,$1+$1,$4,$5*
1,1,$1+$1,$6,$7*
1,1,$1+$1,$8,$9*
0 Add four rect primitives between the rounded corners*
20,1,$1+$1,$2,$3,$4,$5,0*
20,1,$1+$1,$4,$5,$6,$7,0*
20,1,$1+$1,$6,$7,$8,$9,0*
20,1,$1+$1,$8,$9,$2,$3,0*%
G04 Aperture macros list end*
%ADD10RoundRect,0.250000X-0.262500X-0.450000X0.262500X-0.450000X0.262500X0.450000X-0.262500X0.450000X0*%
%ADD11RoundRect,0.250000X0.475000X-0.250000X0.475000X0.250000X-0.475000X0.250000X-0.475000X-0.250000X0*%
%ADD12RoundRect,0.136750X0.410250X-0.950250X0.410250X0.950250X-0.410250X0.950250X-0.410250X-0.950250X0*%
%ADD13RoundRect,0.271750X1.425250X-0.815250X1.425250X0.815250X-1.425250X0.815250X-1.425250X-0.815250X0*%
%ADD14RoundRect,0.250000X-0.450000X0.262500X-0.450000X-0.262500X0.450000X-0.262500X0.450000X0.262500X0*%
%ADD15RoundRect,0.102000X1.387500X1.387500X-1.387500X1.387500X-1.387500X-1.387500X1.387500X-1.387500X0*%
%ADD16C,2.979000*%
%ADD17RoundRect,0.102000X0.450000X-1.000000X0.450000X1.000000X-0.450000X1.000000X-0.450000X-1.000000X0*%
%ADD18RoundRect,0.102000X1.000000X-0.450000X1.000000X0.450000X-1.000000X0.450000X-1.000000X-0.450000X0*%
%ADD19RoundRect,0.102000X0.665000X-0.665000X0.665000X0.665000X-0.665000X0.665000X-0.665000X-0.665000X0*%
%ADD20C,0.504000*%
%ADD21RoundRect,0.250000X0.250000X0.475000X-0.250000X0.475000X-0.250000X-0.475000X0.250000X-0.475000X0*%
%ADD22RoundRect,0.250000X0.262500X0.450000X-0.262500X0.450000X-0.262500X-0.450000X0.262500X-0.450000X0*%
%ADD23RoundRect,0.059250X-0.177750X0.462750X-0.177750X-0.462750X0.177750X-0.462750X0.177750X0.462750X0*%
%ADD24RoundRect,0.102000X-0.715000X0.815000X-0.715000X-0.815000X0.715000X-0.815000X0.715000X0.815000X0*%
%ADD25C,0.650000*%
%ADD26RoundRect,0.102000X0.575000X-0.300000X0.575000X0.300000X-0.575000X0.300000X-0.575000X-0.300000X0*%
%ADD27RoundRect,0.102000X0.575000X-0.150000X0.575000X0.150000X-0.575000X0.150000X-0.575000X-0.150000X0*%
%ADD28O,2.304000X1.204000*%
%ADD29RoundRect,0.301000X0.701000X-0.301000X0.701000X0.301000X-0.701000X0.301000X-0.701000X-0.301000X0*%
%ADD30C,1.854000*%
%ADD31RoundRect,0.243750X-0.243750X-0.456250X0.243750X-0.456250X0.243750X0.456250X-0.243750X0.456250X0*%
%ADD32RoundRect,0.102000X-0.787500X-0.787500X0.787500X-0.787500X0.787500X0.787500X-0.787500X0.787500X0*%
%ADD33C,1.779000*%
%ADD34RoundRect,0.250000X-0.475000X0.250000X-0.475000X-0.250000X0.475000X-0.250000X0.475000X0.250000X0*%
%ADD35RoundRect,0.102000X0.160000X-0.330000X0.160000X0.330000X-0.160000X0.330000X-0.160000X-0.330000X0*%
%ADD36RoundRect,0.102000X0.800000X-0.500000X0.800000X0.500000X-0.800000X0.500000X-0.800000X-0.500000X0*%
%ADD37RoundRect,0.243750X0.243750X0.456250X-0.243750X0.456250X-0.243750X-0.456250X0.243750X-0.456250X0*%
%ADD38RoundRect,0.250000X0.450000X-0.262500X0.450000X0.262500X-0.450000X0.262500X-0.450000X-0.262500X0*%
%ADD39RoundRect,0.243750X0.456250X-0.243750X0.456250X0.243750X-0.456250X0.243750X-0.456250X-0.243750X0*%
G04 APERTURE END LIST*
D10*
%TO.C,R6*%
X119175000Y-141000000D03*
X121000000Y-141000000D03*
%TD*%
D11*
%TO.C,C3*%
X99500000Y-106200000D03*
X99500000Y-104300000D03*
%TD*%
D12*
%TO.C,U2*%
X122200000Y-123550000D03*
X124500000Y-123550000D03*
X126800000Y-123550000D03*
D13*
X124500000Y-117500000D03*
%TD*%
D14*
%TO.C,R1*%
X126000000Y-113500000D03*
X126000000Y-115325000D03*
%TD*%
D15*
%TO.C,S1*%
X117200000Y-113750000D03*
D16*
X112500000Y-113750000D03*
X107800000Y-113750000D03*
%TD*%
D17*
%TO.C,U3*%
X98380000Y-145000000D03*
X99650000Y-145000000D03*
X100920000Y-145000000D03*
X102190000Y-145000000D03*
X103460000Y-145000000D03*
X104730000Y-145000000D03*
X106000000Y-145000000D03*
X107270000Y-145000000D03*
X108540000Y-145000000D03*
X109810000Y-145000000D03*
X111080000Y-145000000D03*
X112350000Y-145000000D03*
X113620000Y-145000000D03*
X114890000Y-145000000D03*
D18*
X115890000Y-142215000D03*
X115890000Y-140945000D03*
X115890000Y-139675000D03*
X115890000Y-138405000D03*
X115890000Y-137135000D03*
X115890000Y-135865000D03*
X115890000Y-134595000D03*
X115890000Y-133325000D03*
X115890000Y-132055000D03*
X115890000Y-130785000D03*
D17*
X114890000Y-128000000D03*
X113620000Y-128000000D03*
X112350000Y-128000000D03*
X111080000Y-128000000D03*
X109810000Y-128000000D03*
X108540000Y-128000000D03*
X107270000Y-128000000D03*
X106000000Y-128000000D03*
X104730000Y-128000000D03*
X103460000Y-128000000D03*
X102190000Y-128000000D03*
X100920000Y-128000000D03*
X99650000Y-128000000D03*
X98380000Y-128000000D03*
D19*
X104045000Y-139335000D03*
X104045000Y-137500000D03*
X104045000Y-135665000D03*
X105880000Y-139335000D03*
X105880000Y-137500000D03*
X105880000Y-135665000D03*
X107715000Y-139335000D03*
X107715000Y-137500000D03*
X107715000Y-135665000D03*
D20*
X104045000Y-138417500D03*
X104045000Y-136582500D03*
X104962500Y-139335000D03*
X104962500Y-137500000D03*
X104962500Y-135665000D03*
X105880000Y-138417500D03*
X105880000Y-136582500D03*
X106797500Y-139335000D03*
X106797500Y-137500000D03*
X106797500Y-135665000D03*
X107715000Y-138417500D03*
X107715000Y-136582500D03*
%TD*%
D21*
%TO.C,C2*%
X103500000Y-104250000D03*
X101600000Y-104250000D03*
%TD*%
D22*
%TO.C,R10*%
X104500000Y-147500000D03*
X102675000Y-147500000D03*
%TD*%
D23*
%TO.C,U1*%
X130250000Y-113565000D03*
X129750000Y-113565000D03*
X129250000Y-113565000D03*
X128750000Y-113565000D03*
X128750000Y-116435000D03*
X129250000Y-116435000D03*
X129750000Y-116435000D03*
X130250000Y-116435000D03*
D24*
X129500000Y-115000000D03*
%TD*%
D21*
%TO.C,C6*%
X99950000Y-149500000D03*
X98050000Y-149500000D03*
%TD*%
D25*
%TO.C,J2*%
X138000000Y-114710000D03*
X138000000Y-108930000D03*
D26*
X136925000Y-115020000D03*
X136925000Y-114220000D03*
D27*
X136925000Y-113070000D03*
X136925000Y-112070000D03*
X136925000Y-111570000D03*
X136925000Y-110570000D03*
D26*
X136925000Y-108620000D03*
X136925000Y-109420000D03*
D27*
X136925000Y-110070000D03*
X136925000Y-111070000D03*
X136925000Y-112570000D03*
X136925000Y-113570000D03*
D28*
X137500000Y-116140000D03*
X137500000Y-107500000D03*
D29*
X141680000Y-116140000D03*
X141680000Y-107500000D03*
%TD*%
D10*
%TO.C,R8*%
X107000000Y-149500000D03*
X108825000Y-149500000D03*
%TD*%
%TO.C,R3*%
X101675000Y-106250000D03*
X103500000Y-106250000D03*
%TD*%
D30*
%TO.C,J1*%
X141500000Y-145500000D03*
X138960000Y-145500000D03*
X141500000Y-142960000D03*
X138960000Y-142960000D03*
X141500000Y-140420000D03*
X138960000Y-140420000D03*
X141500000Y-137880000D03*
X138960000Y-137880000D03*
X141500000Y-135340000D03*
X138960000Y-135340000D03*
X141500000Y-132800000D03*
X138960000Y-132800000D03*
X141500000Y-130260000D03*
X138960000Y-130260000D03*
X141500000Y-127720000D03*
X138960000Y-127720000D03*
X141500000Y-125180000D03*
X138960000Y-125180000D03*
X141500000Y-122640000D03*
X138960000Y-122640000D03*
%TD*%
D21*
%TO.C,C5*%
X104500000Y-149500000D03*
X102600000Y-149500000D03*
%TD*%
%TO.C,C7*%
X99950000Y-147500000D03*
X98050000Y-147500000D03*
%TD*%
D31*
%TO.C,D2*%
X107000000Y-147500000D03*
X108875000Y-147500000D03*
%TD*%
D32*
%TO.C,J3*%
X115000000Y-107250000D03*
D33*
X112500000Y-107250000D03*
%TD*%
D34*
%TO.C,C1*%
X134000000Y-114050000D03*
X134000000Y-115950000D03*
%TD*%
D10*
%TO.C,R5*%
X119087500Y-145000000D03*
X120912500Y-145000000D03*
%TD*%
D35*
%TO.C,U4*%
X118350000Y-135025000D03*
X119000000Y-135025000D03*
X119650000Y-135025000D03*
X119650000Y-132975000D03*
X119000000Y-132975000D03*
X118350000Y-132975000D03*
D36*
X119000000Y-134000000D03*
%TD*%
D37*
%TO.C,D3*%
X128000000Y-110000000D03*
X126125000Y-110000000D03*
%TD*%
D21*
%TO.C,C4*%
X126500000Y-126000000D03*
X124600000Y-126000000D03*
%TD*%
D38*
%TO.C,R2*%
X132000000Y-116500000D03*
X132000000Y-114675000D03*
%TD*%
D39*
%TO.C,D1*%
X107000000Y-108250000D03*
X107000000Y-106375000D03*
%TD*%
M02*
