%TF.GenerationSoftware,KiCad,Pcbnew,8.0.6-8.0.6-0~ubuntu24.04.1*%
%TF.CreationDate,2024-10-24T11:21:26+02:00*%
%TF.ProjectId,Projet1,50726f6a-6574-4312-9e6b-696361645f70,rev?*%
%TF.SameCoordinates,Original*%
%TF.FileFunction,Legend,Top*%
%TF.FilePolarity,Positive*%
%FSLAX46Y46*%
G04 Gerber Fmt 4.6, Leading zero omitted, Abs format (unit mm)*
G04 Created by KiCad (PCBNEW 8.0.6-8.0.6-0~ubuntu24.04.1) date 2024-10-24 11:21:26*
%MOMM*%
%LPD*%
G01*
G04 APERTURE LIST*
%ADD10C,0.150000*%
%ADD11C,0.120000*%
%ADD12C,0.127000*%
%ADD13C,0.200000*%
%ADD14C,0.010000*%
G04 APERTURE END LIST*
D10*
X124104819Y-131642857D02*
X123628628Y-131976190D01*
X124104819Y-132214285D02*
X123104819Y-132214285D01*
X123104819Y-132214285D02*
X123104819Y-131833333D01*
X123104819Y-131833333D02*
X123152438Y-131738095D01*
X123152438Y-131738095D02*
X123200057Y-131690476D01*
X123200057Y-131690476D02*
X123295295Y-131642857D01*
X123295295Y-131642857D02*
X123438152Y-131642857D01*
X123438152Y-131642857D02*
X123533390Y-131690476D01*
X123533390Y-131690476D02*
X123581009Y-131738095D01*
X123581009Y-131738095D02*
X123628628Y-131833333D01*
X123628628Y-131833333D02*
X123628628Y-132214285D01*
X124104819Y-130690476D02*
X124104819Y-131261904D01*
X124104819Y-130976190D02*
X123104819Y-130976190D01*
X123104819Y-130976190D02*
X123247676Y-131071428D01*
X123247676Y-131071428D02*
X123342914Y-131166666D01*
X123342914Y-131166666D02*
X123390533Y-131261904D01*
X124104819Y-129738095D02*
X124104819Y-130309523D01*
X124104819Y-130023809D02*
X123104819Y-130023809D01*
X123104819Y-130023809D02*
X123247676Y-130119047D01*
X123247676Y-130119047D02*
X123342914Y-130214285D01*
X123342914Y-130214285D02*
X123390533Y-130309523D01*
X118920833Y-129104819D02*
X118587500Y-128628628D01*
X118349405Y-129104819D02*
X118349405Y-128104819D01*
X118349405Y-128104819D02*
X118730357Y-128104819D01*
X118730357Y-128104819D02*
X118825595Y-128152438D01*
X118825595Y-128152438D02*
X118873214Y-128200057D01*
X118873214Y-128200057D02*
X118920833Y-128295295D01*
X118920833Y-128295295D02*
X118920833Y-128438152D01*
X118920833Y-128438152D02*
X118873214Y-128533390D01*
X118873214Y-128533390D02*
X118825595Y-128581009D01*
X118825595Y-128581009D02*
X118730357Y-128628628D01*
X118730357Y-128628628D02*
X118349405Y-128628628D01*
X119397024Y-129104819D02*
X119587500Y-129104819D01*
X119587500Y-129104819D02*
X119682738Y-129057200D01*
X119682738Y-129057200D02*
X119730357Y-129009580D01*
X119730357Y-129009580D02*
X119825595Y-128866723D01*
X119825595Y-128866723D02*
X119873214Y-128676247D01*
X119873214Y-128676247D02*
X119873214Y-128295295D01*
X119873214Y-128295295D02*
X119825595Y-128200057D01*
X119825595Y-128200057D02*
X119777976Y-128152438D01*
X119777976Y-128152438D02*
X119682738Y-128104819D01*
X119682738Y-128104819D02*
X119492262Y-128104819D01*
X119492262Y-128104819D02*
X119397024Y-128152438D01*
X119397024Y-128152438D02*
X119349405Y-128200057D01*
X119349405Y-128200057D02*
X119301786Y-128295295D01*
X119301786Y-128295295D02*
X119301786Y-128533390D01*
X119301786Y-128533390D02*
X119349405Y-128628628D01*
X119349405Y-128628628D02*
X119397024Y-128676247D01*
X119397024Y-128676247D02*
X119492262Y-128723866D01*
X119492262Y-128723866D02*
X119682738Y-128723866D01*
X119682738Y-128723866D02*
X119777976Y-128676247D01*
X119777976Y-128676247D02*
X119825595Y-128628628D01*
X119825595Y-128628628D02*
X119873214Y-128533390D01*
X118420833Y-139804819D02*
X118087500Y-139328628D01*
X117849405Y-139804819D02*
X117849405Y-138804819D01*
X117849405Y-138804819D02*
X118230357Y-138804819D01*
X118230357Y-138804819D02*
X118325595Y-138852438D01*
X118325595Y-138852438D02*
X118373214Y-138900057D01*
X118373214Y-138900057D02*
X118420833Y-138995295D01*
X118420833Y-138995295D02*
X118420833Y-139138152D01*
X118420833Y-139138152D02*
X118373214Y-139233390D01*
X118373214Y-139233390D02*
X118325595Y-139281009D01*
X118325595Y-139281009D02*
X118230357Y-139328628D01*
X118230357Y-139328628D02*
X117849405Y-139328628D01*
X119277976Y-138804819D02*
X119087500Y-138804819D01*
X119087500Y-138804819D02*
X118992262Y-138852438D01*
X118992262Y-138852438D02*
X118944643Y-138900057D01*
X118944643Y-138900057D02*
X118849405Y-139042914D01*
X118849405Y-139042914D02*
X118801786Y-139233390D01*
X118801786Y-139233390D02*
X118801786Y-139614342D01*
X118801786Y-139614342D02*
X118849405Y-139709580D01*
X118849405Y-139709580D02*
X118897024Y-139757200D01*
X118897024Y-139757200D02*
X118992262Y-139804819D01*
X118992262Y-139804819D02*
X119182738Y-139804819D01*
X119182738Y-139804819D02*
X119277976Y-139757200D01*
X119277976Y-139757200D02*
X119325595Y-139709580D01*
X119325595Y-139709580D02*
X119373214Y-139614342D01*
X119373214Y-139614342D02*
X119373214Y-139376247D01*
X119373214Y-139376247D02*
X119325595Y-139281009D01*
X119325595Y-139281009D02*
X119277976Y-139233390D01*
X119277976Y-139233390D02*
X119182738Y-139185771D01*
X119182738Y-139185771D02*
X118992262Y-139185771D01*
X118992262Y-139185771D02*
X118897024Y-139233390D01*
X118897024Y-139233390D02*
X118849405Y-139281009D01*
X118849405Y-139281009D02*
X118801786Y-139376247D01*
X98179580Y-105416666D02*
X98227200Y-105464285D01*
X98227200Y-105464285D02*
X98274819Y-105607142D01*
X98274819Y-105607142D02*
X98274819Y-105702380D01*
X98274819Y-105702380D02*
X98227200Y-105845237D01*
X98227200Y-105845237D02*
X98131961Y-105940475D01*
X98131961Y-105940475D02*
X98036723Y-105988094D01*
X98036723Y-105988094D02*
X97846247Y-106035713D01*
X97846247Y-106035713D02*
X97703390Y-106035713D01*
X97703390Y-106035713D02*
X97512914Y-105988094D01*
X97512914Y-105988094D02*
X97417676Y-105940475D01*
X97417676Y-105940475D02*
X97322438Y-105845237D01*
X97322438Y-105845237D02*
X97274819Y-105702380D01*
X97274819Y-105702380D02*
X97274819Y-105607142D01*
X97274819Y-105607142D02*
X97322438Y-105464285D01*
X97322438Y-105464285D02*
X97370057Y-105416666D01*
X97274819Y-105083332D02*
X97274819Y-104464285D01*
X97274819Y-104464285D02*
X97655771Y-104797618D01*
X97655771Y-104797618D02*
X97655771Y-104654761D01*
X97655771Y-104654761D02*
X97703390Y-104559523D01*
X97703390Y-104559523D02*
X97751009Y-104511904D01*
X97751009Y-104511904D02*
X97846247Y-104464285D01*
X97846247Y-104464285D02*
X98084342Y-104464285D01*
X98084342Y-104464285D02*
X98179580Y-104511904D01*
X98179580Y-104511904D02*
X98227200Y-104559523D01*
X98227200Y-104559523D02*
X98274819Y-104654761D01*
X98274819Y-104654761D02*
X98274819Y-104940475D01*
X98274819Y-104940475D02*
X98227200Y-105035713D01*
X98227200Y-105035713D02*
X98179580Y-105083332D01*
X119319819Y-121911904D02*
X120129342Y-121911904D01*
X120129342Y-121911904D02*
X120224580Y-121864285D01*
X120224580Y-121864285D02*
X120272200Y-121816666D01*
X120272200Y-121816666D02*
X120319819Y-121721428D01*
X120319819Y-121721428D02*
X120319819Y-121530952D01*
X120319819Y-121530952D02*
X120272200Y-121435714D01*
X120272200Y-121435714D02*
X120224580Y-121388095D01*
X120224580Y-121388095D02*
X120129342Y-121340476D01*
X120129342Y-121340476D02*
X119319819Y-121340476D01*
X119415057Y-120911904D02*
X119367438Y-120864285D01*
X119367438Y-120864285D02*
X119319819Y-120769047D01*
X119319819Y-120769047D02*
X119319819Y-120530952D01*
X119319819Y-120530952D02*
X119367438Y-120435714D01*
X119367438Y-120435714D02*
X119415057Y-120388095D01*
X119415057Y-120388095D02*
X119510295Y-120340476D01*
X119510295Y-120340476D02*
X119605533Y-120340476D01*
X119605533Y-120340476D02*
X119748390Y-120388095D01*
X119748390Y-120388095D02*
X120319819Y-120959523D01*
X120319819Y-120959523D02*
X120319819Y-120340476D01*
X128104819Y-114579166D02*
X127628628Y-114912499D01*
X128104819Y-115150594D02*
X127104819Y-115150594D01*
X127104819Y-115150594D02*
X127104819Y-114769642D01*
X127104819Y-114769642D02*
X127152438Y-114674404D01*
X127152438Y-114674404D02*
X127200057Y-114626785D01*
X127200057Y-114626785D02*
X127295295Y-114579166D01*
X127295295Y-114579166D02*
X127438152Y-114579166D01*
X127438152Y-114579166D02*
X127533390Y-114626785D01*
X127533390Y-114626785D02*
X127581009Y-114674404D01*
X127581009Y-114674404D02*
X127628628Y-114769642D01*
X127628628Y-114769642D02*
X127628628Y-115150594D01*
X128104819Y-113626785D02*
X128104819Y-114198213D01*
X128104819Y-113912499D02*
X127104819Y-113912499D01*
X127104819Y-113912499D02*
X127247676Y-114007737D01*
X127247676Y-114007737D02*
X127342914Y-114102975D01*
X127342914Y-114102975D02*
X127390533Y-114198213D01*
X114913095Y-118602200D02*
X115055952Y-118649819D01*
X115055952Y-118649819D02*
X115294047Y-118649819D01*
X115294047Y-118649819D02*
X115389285Y-118602200D01*
X115389285Y-118602200D02*
X115436904Y-118554580D01*
X115436904Y-118554580D02*
X115484523Y-118459342D01*
X115484523Y-118459342D02*
X115484523Y-118364104D01*
X115484523Y-118364104D02*
X115436904Y-118268866D01*
X115436904Y-118268866D02*
X115389285Y-118221247D01*
X115389285Y-118221247D02*
X115294047Y-118173628D01*
X115294047Y-118173628D02*
X115103571Y-118126009D01*
X115103571Y-118126009D02*
X115008333Y-118078390D01*
X115008333Y-118078390D02*
X114960714Y-118030771D01*
X114960714Y-118030771D02*
X114913095Y-117935533D01*
X114913095Y-117935533D02*
X114913095Y-117840295D01*
X114913095Y-117840295D02*
X114960714Y-117745057D01*
X114960714Y-117745057D02*
X115008333Y-117697438D01*
X115008333Y-117697438D02*
X115103571Y-117649819D01*
X115103571Y-117649819D02*
X115341666Y-117649819D01*
X115341666Y-117649819D02*
X115484523Y-117697438D01*
X116436904Y-118649819D02*
X115865476Y-118649819D01*
X116151190Y-118649819D02*
X116151190Y-117649819D01*
X116151190Y-117649819D02*
X116055952Y-117792676D01*
X116055952Y-117792676D02*
X115960714Y-117887914D01*
X115960714Y-117887914D02*
X115865476Y-117935533D01*
X89209819Y-143586904D02*
X90019342Y-143586904D01*
X90019342Y-143586904D02*
X90114580Y-143539285D01*
X90114580Y-143539285D02*
X90162200Y-143491666D01*
X90162200Y-143491666D02*
X90209819Y-143396428D01*
X90209819Y-143396428D02*
X90209819Y-143205952D01*
X90209819Y-143205952D02*
X90162200Y-143110714D01*
X90162200Y-143110714D02*
X90114580Y-143063095D01*
X90114580Y-143063095D02*
X90019342Y-143015476D01*
X90019342Y-143015476D02*
X89209819Y-143015476D01*
X89209819Y-142634523D02*
X89209819Y-142015476D01*
X89209819Y-142015476D02*
X89590771Y-142348809D01*
X89590771Y-142348809D02*
X89590771Y-142205952D01*
X89590771Y-142205952D02*
X89638390Y-142110714D01*
X89638390Y-142110714D02*
X89686009Y-142063095D01*
X89686009Y-142063095D02*
X89781247Y-142015476D01*
X89781247Y-142015476D02*
X90019342Y-142015476D01*
X90019342Y-142015476D02*
X90114580Y-142063095D01*
X90114580Y-142063095D02*
X90162200Y-142110714D01*
X90162200Y-142110714D02*
X90209819Y-142205952D01*
X90209819Y-142205952D02*
X90209819Y-142491666D01*
X90209819Y-142491666D02*
X90162200Y-142586904D01*
X90162200Y-142586904D02*
X90114580Y-142634523D01*
X102383333Y-106289580D02*
X102335714Y-106337200D01*
X102335714Y-106337200D02*
X102192857Y-106384819D01*
X102192857Y-106384819D02*
X102097619Y-106384819D01*
X102097619Y-106384819D02*
X101954762Y-106337200D01*
X101954762Y-106337200D02*
X101859524Y-106241961D01*
X101859524Y-106241961D02*
X101811905Y-106146723D01*
X101811905Y-106146723D02*
X101764286Y-105956247D01*
X101764286Y-105956247D02*
X101764286Y-105813390D01*
X101764286Y-105813390D02*
X101811905Y-105622914D01*
X101811905Y-105622914D02*
X101859524Y-105527676D01*
X101859524Y-105527676D02*
X101954762Y-105432438D01*
X101954762Y-105432438D02*
X102097619Y-105384819D01*
X102097619Y-105384819D02*
X102192857Y-105384819D01*
X102192857Y-105384819D02*
X102335714Y-105432438D01*
X102335714Y-105432438D02*
X102383333Y-105480057D01*
X102764286Y-105480057D02*
X102811905Y-105432438D01*
X102811905Y-105432438D02*
X102907143Y-105384819D01*
X102907143Y-105384819D02*
X103145238Y-105384819D01*
X103145238Y-105384819D02*
X103240476Y-105432438D01*
X103240476Y-105432438D02*
X103288095Y-105480057D01*
X103288095Y-105480057D02*
X103335714Y-105575295D01*
X103335714Y-105575295D02*
X103335714Y-105670533D01*
X103335714Y-105670533D02*
X103288095Y-105813390D01*
X103288095Y-105813390D02*
X102716667Y-106384819D01*
X102716667Y-106384819D02*
X103335714Y-106384819D01*
X102944642Y-149604819D02*
X102611309Y-149128628D01*
X102373214Y-149604819D02*
X102373214Y-148604819D01*
X102373214Y-148604819D02*
X102754166Y-148604819D01*
X102754166Y-148604819D02*
X102849404Y-148652438D01*
X102849404Y-148652438D02*
X102897023Y-148700057D01*
X102897023Y-148700057D02*
X102944642Y-148795295D01*
X102944642Y-148795295D02*
X102944642Y-148938152D01*
X102944642Y-148938152D02*
X102897023Y-149033390D01*
X102897023Y-149033390D02*
X102849404Y-149081009D01*
X102849404Y-149081009D02*
X102754166Y-149128628D01*
X102754166Y-149128628D02*
X102373214Y-149128628D01*
X103897023Y-149604819D02*
X103325595Y-149604819D01*
X103611309Y-149604819D02*
X103611309Y-148604819D01*
X103611309Y-148604819D02*
X103516071Y-148747676D01*
X103516071Y-148747676D02*
X103420833Y-148842914D01*
X103420833Y-148842914D02*
X103325595Y-148890533D01*
X104516071Y-148604819D02*
X104611309Y-148604819D01*
X104611309Y-148604819D02*
X104706547Y-148652438D01*
X104706547Y-148652438D02*
X104754166Y-148700057D01*
X104754166Y-148700057D02*
X104801785Y-148795295D01*
X104801785Y-148795295D02*
X104849404Y-148985771D01*
X104849404Y-148985771D02*
X104849404Y-149223866D01*
X104849404Y-149223866D02*
X104801785Y-149414342D01*
X104801785Y-149414342D02*
X104754166Y-149509580D01*
X104754166Y-149509580D02*
X104706547Y-149557200D01*
X104706547Y-149557200D02*
X104611309Y-149604819D01*
X104611309Y-149604819D02*
X104516071Y-149604819D01*
X104516071Y-149604819D02*
X104420833Y-149557200D01*
X104420833Y-149557200D02*
X104373214Y-149509580D01*
X104373214Y-149509580D02*
X104325595Y-149414342D01*
X104325595Y-149414342D02*
X104277976Y-149223866D01*
X104277976Y-149223866D02*
X104277976Y-148985771D01*
X104277976Y-148985771D02*
X104325595Y-148795295D01*
X104325595Y-148795295D02*
X104373214Y-148700057D01*
X104373214Y-148700057D02*
X104420833Y-148652438D01*
X104420833Y-148652438D02*
X104516071Y-148604819D01*
X131479819Y-115707904D02*
X132289342Y-115707904D01*
X132289342Y-115707904D02*
X132384580Y-115660285D01*
X132384580Y-115660285D02*
X132432200Y-115612666D01*
X132432200Y-115612666D02*
X132479819Y-115517428D01*
X132479819Y-115517428D02*
X132479819Y-115326952D01*
X132479819Y-115326952D02*
X132432200Y-115231714D01*
X132432200Y-115231714D02*
X132384580Y-115184095D01*
X132384580Y-115184095D02*
X132289342Y-115136476D01*
X132289342Y-115136476D02*
X131479819Y-115136476D01*
X132479819Y-114136476D02*
X132479819Y-114707904D01*
X132479819Y-114422190D02*
X131479819Y-114422190D01*
X131479819Y-114422190D02*
X131622676Y-114517428D01*
X131622676Y-114517428D02*
X131717914Y-114612666D01*
X131717914Y-114612666D02*
X131765533Y-114707904D01*
X98833333Y-151359580D02*
X98785714Y-151407200D01*
X98785714Y-151407200D02*
X98642857Y-151454819D01*
X98642857Y-151454819D02*
X98547619Y-151454819D01*
X98547619Y-151454819D02*
X98404762Y-151407200D01*
X98404762Y-151407200D02*
X98309524Y-151311961D01*
X98309524Y-151311961D02*
X98261905Y-151216723D01*
X98261905Y-151216723D02*
X98214286Y-151026247D01*
X98214286Y-151026247D02*
X98214286Y-150883390D01*
X98214286Y-150883390D02*
X98261905Y-150692914D01*
X98261905Y-150692914D02*
X98309524Y-150597676D01*
X98309524Y-150597676D02*
X98404762Y-150502438D01*
X98404762Y-150502438D02*
X98547619Y-150454819D01*
X98547619Y-150454819D02*
X98642857Y-150454819D01*
X98642857Y-150454819D02*
X98785714Y-150502438D01*
X98785714Y-150502438D02*
X98833333Y-150550057D01*
X99690476Y-150454819D02*
X99500000Y-150454819D01*
X99500000Y-150454819D02*
X99404762Y-150502438D01*
X99404762Y-150502438D02*
X99357143Y-150550057D01*
X99357143Y-150550057D02*
X99261905Y-150692914D01*
X99261905Y-150692914D02*
X99214286Y-150883390D01*
X99214286Y-150883390D02*
X99214286Y-151264342D01*
X99214286Y-151264342D02*
X99261905Y-151359580D01*
X99261905Y-151359580D02*
X99309524Y-151407200D01*
X99309524Y-151407200D02*
X99404762Y-151454819D01*
X99404762Y-151454819D02*
X99595238Y-151454819D01*
X99595238Y-151454819D02*
X99690476Y-151407200D01*
X99690476Y-151407200D02*
X99738095Y-151359580D01*
X99738095Y-151359580D02*
X99785714Y-151264342D01*
X99785714Y-151264342D02*
X99785714Y-151026247D01*
X99785714Y-151026247D02*
X99738095Y-150931009D01*
X99738095Y-150931009D02*
X99690476Y-150883390D01*
X99690476Y-150883390D02*
X99595238Y-150835771D01*
X99595238Y-150835771D02*
X99404762Y-150835771D01*
X99404762Y-150835771D02*
X99309524Y-150883390D01*
X99309524Y-150883390D02*
X99261905Y-150931009D01*
X99261905Y-150931009D02*
X99214286Y-151026247D01*
X132499819Y-113978333D02*
X133214104Y-113978333D01*
X133214104Y-113978333D02*
X133356961Y-114025952D01*
X133356961Y-114025952D02*
X133452200Y-114121190D01*
X133452200Y-114121190D02*
X133499819Y-114264047D01*
X133499819Y-114264047D02*
X133499819Y-114359285D01*
X132595057Y-113549761D02*
X132547438Y-113502142D01*
X132547438Y-113502142D02*
X132499819Y-113406904D01*
X132499819Y-113406904D02*
X132499819Y-113168809D01*
X132499819Y-113168809D02*
X132547438Y-113073571D01*
X132547438Y-113073571D02*
X132595057Y-113025952D01*
X132595057Y-113025952D02*
X132690295Y-112978333D01*
X132690295Y-112978333D02*
X132785533Y-112978333D01*
X132785533Y-112978333D02*
X132928390Y-113025952D01*
X132928390Y-113025952D02*
X133499819Y-113597380D01*
X133499819Y-113597380D02*
X133499819Y-112978333D01*
X107745833Y-148304819D02*
X107412500Y-147828628D01*
X107174405Y-148304819D02*
X107174405Y-147304819D01*
X107174405Y-147304819D02*
X107555357Y-147304819D01*
X107555357Y-147304819D02*
X107650595Y-147352438D01*
X107650595Y-147352438D02*
X107698214Y-147400057D01*
X107698214Y-147400057D02*
X107745833Y-147495295D01*
X107745833Y-147495295D02*
X107745833Y-147638152D01*
X107745833Y-147638152D02*
X107698214Y-147733390D01*
X107698214Y-147733390D02*
X107650595Y-147781009D01*
X107650595Y-147781009D02*
X107555357Y-147828628D01*
X107555357Y-147828628D02*
X107174405Y-147828628D01*
X108317262Y-147733390D02*
X108222024Y-147685771D01*
X108222024Y-147685771D02*
X108174405Y-147638152D01*
X108174405Y-147638152D02*
X108126786Y-147542914D01*
X108126786Y-147542914D02*
X108126786Y-147495295D01*
X108126786Y-147495295D02*
X108174405Y-147400057D01*
X108174405Y-147400057D02*
X108222024Y-147352438D01*
X108222024Y-147352438D02*
X108317262Y-147304819D01*
X108317262Y-147304819D02*
X108507738Y-147304819D01*
X108507738Y-147304819D02*
X108602976Y-147352438D01*
X108602976Y-147352438D02*
X108650595Y-147400057D01*
X108650595Y-147400057D02*
X108698214Y-147495295D01*
X108698214Y-147495295D02*
X108698214Y-147542914D01*
X108698214Y-147542914D02*
X108650595Y-147638152D01*
X108650595Y-147638152D02*
X108602976Y-147685771D01*
X108602976Y-147685771D02*
X108507738Y-147733390D01*
X108507738Y-147733390D02*
X108317262Y-147733390D01*
X108317262Y-147733390D02*
X108222024Y-147781009D01*
X108222024Y-147781009D02*
X108174405Y-147828628D01*
X108174405Y-147828628D02*
X108126786Y-147923866D01*
X108126786Y-147923866D02*
X108126786Y-148114342D01*
X108126786Y-148114342D02*
X108174405Y-148209580D01*
X108174405Y-148209580D02*
X108222024Y-148257200D01*
X108222024Y-148257200D02*
X108317262Y-148304819D01*
X108317262Y-148304819D02*
X108507738Y-148304819D01*
X108507738Y-148304819D02*
X108602976Y-148257200D01*
X108602976Y-148257200D02*
X108650595Y-148209580D01*
X108650595Y-148209580D02*
X108698214Y-148114342D01*
X108698214Y-148114342D02*
X108698214Y-147923866D01*
X108698214Y-147923866D02*
X108650595Y-147828628D01*
X108650595Y-147828628D02*
X108602976Y-147781009D01*
X108602976Y-147781009D02*
X108507738Y-147733390D01*
X102420833Y-105054819D02*
X102087500Y-104578628D01*
X101849405Y-105054819D02*
X101849405Y-104054819D01*
X101849405Y-104054819D02*
X102230357Y-104054819D01*
X102230357Y-104054819D02*
X102325595Y-104102438D01*
X102325595Y-104102438D02*
X102373214Y-104150057D01*
X102373214Y-104150057D02*
X102420833Y-104245295D01*
X102420833Y-104245295D02*
X102420833Y-104388152D01*
X102420833Y-104388152D02*
X102373214Y-104483390D01*
X102373214Y-104483390D02*
X102325595Y-104531009D01*
X102325595Y-104531009D02*
X102230357Y-104578628D01*
X102230357Y-104578628D02*
X101849405Y-104578628D01*
X102754167Y-104054819D02*
X103373214Y-104054819D01*
X103373214Y-104054819D02*
X103039881Y-104435771D01*
X103039881Y-104435771D02*
X103182738Y-104435771D01*
X103182738Y-104435771D02*
X103277976Y-104483390D01*
X103277976Y-104483390D02*
X103325595Y-104531009D01*
X103325595Y-104531009D02*
X103373214Y-104626247D01*
X103373214Y-104626247D02*
X103373214Y-104864342D01*
X103373214Y-104864342D02*
X103325595Y-104959580D01*
X103325595Y-104959580D02*
X103277976Y-105007200D01*
X103277976Y-105007200D02*
X103182738Y-105054819D01*
X103182738Y-105054819D02*
X102897024Y-105054819D01*
X102897024Y-105054819D02*
X102801786Y-105007200D01*
X102801786Y-105007200D02*
X102754167Y-104959580D01*
X134062295Y-150266666D02*
X134633723Y-150266666D01*
X134633723Y-150266666D02*
X134748009Y-150304761D01*
X134748009Y-150304761D02*
X134824200Y-150380952D01*
X134824200Y-150380952D02*
X134862295Y-150495237D01*
X134862295Y-150495237D02*
X134862295Y-150571428D01*
X134862295Y-149466666D02*
X134862295Y-149923809D01*
X134862295Y-149695237D02*
X134062295Y-149695237D01*
X134062295Y-149695237D02*
X134176580Y-149771428D01*
X134176580Y-149771428D02*
X134252771Y-149847618D01*
X134252771Y-149847618D02*
X134290866Y-149923809D01*
X103333333Y-151359580D02*
X103285714Y-151407200D01*
X103285714Y-151407200D02*
X103142857Y-151454819D01*
X103142857Y-151454819D02*
X103047619Y-151454819D01*
X103047619Y-151454819D02*
X102904762Y-151407200D01*
X102904762Y-151407200D02*
X102809524Y-151311961D01*
X102809524Y-151311961D02*
X102761905Y-151216723D01*
X102761905Y-151216723D02*
X102714286Y-151026247D01*
X102714286Y-151026247D02*
X102714286Y-150883390D01*
X102714286Y-150883390D02*
X102761905Y-150692914D01*
X102761905Y-150692914D02*
X102809524Y-150597676D01*
X102809524Y-150597676D02*
X102904762Y-150502438D01*
X102904762Y-150502438D02*
X103047619Y-150454819D01*
X103047619Y-150454819D02*
X103142857Y-150454819D01*
X103142857Y-150454819D02*
X103285714Y-150502438D01*
X103285714Y-150502438D02*
X103333333Y-150550057D01*
X104238095Y-150454819D02*
X103761905Y-150454819D01*
X103761905Y-150454819D02*
X103714286Y-150931009D01*
X103714286Y-150931009D02*
X103761905Y-150883390D01*
X103761905Y-150883390D02*
X103857143Y-150835771D01*
X103857143Y-150835771D02*
X104095238Y-150835771D01*
X104095238Y-150835771D02*
X104190476Y-150883390D01*
X104190476Y-150883390D02*
X104238095Y-150931009D01*
X104238095Y-150931009D02*
X104285714Y-151026247D01*
X104285714Y-151026247D02*
X104285714Y-151264342D01*
X104285714Y-151264342D02*
X104238095Y-151359580D01*
X104238095Y-151359580D02*
X104190476Y-151407200D01*
X104190476Y-151407200D02*
X104095238Y-151454819D01*
X104095238Y-151454819D02*
X103857143Y-151454819D01*
X103857143Y-151454819D02*
X103761905Y-151407200D01*
X103761905Y-151407200D02*
X103714286Y-151359580D01*
X98833333Y-149539580D02*
X98785714Y-149587200D01*
X98785714Y-149587200D02*
X98642857Y-149634819D01*
X98642857Y-149634819D02*
X98547619Y-149634819D01*
X98547619Y-149634819D02*
X98404762Y-149587200D01*
X98404762Y-149587200D02*
X98309524Y-149491961D01*
X98309524Y-149491961D02*
X98261905Y-149396723D01*
X98261905Y-149396723D02*
X98214286Y-149206247D01*
X98214286Y-149206247D02*
X98214286Y-149063390D01*
X98214286Y-149063390D02*
X98261905Y-148872914D01*
X98261905Y-148872914D02*
X98309524Y-148777676D01*
X98309524Y-148777676D02*
X98404762Y-148682438D01*
X98404762Y-148682438D02*
X98547619Y-148634819D01*
X98547619Y-148634819D02*
X98642857Y-148634819D01*
X98642857Y-148634819D02*
X98785714Y-148682438D01*
X98785714Y-148682438D02*
X98833333Y-148730057D01*
X99166667Y-148634819D02*
X99833333Y-148634819D01*
X99833333Y-148634819D02*
X99404762Y-149634819D01*
X107199405Y-146304819D02*
X107199405Y-145304819D01*
X107199405Y-145304819D02*
X107437500Y-145304819D01*
X107437500Y-145304819D02*
X107580357Y-145352438D01*
X107580357Y-145352438D02*
X107675595Y-145447676D01*
X107675595Y-145447676D02*
X107723214Y-145542914D01*
X107723214Y-145542914D02*
X107770833Y-145733390D01*
X107770833Y-145733390D02*
X107770833Y-145876247D01*
X107770833Y-145876247D02*
X107723214Y-146066723D01*
X107723214Y-146066723D02*
X107675595Y-146161961D01*
X107675595Y-146161961D02*
X107580357Y-146257200D01*
X107580357Y-146257200D02*
X107437500Y-146304819D01*
X107437500Y-146304819D02*
X107199405Y-146304819D01*
X108151786Y-145400057D02*
X108199405Y-145352438D01*
X108199405Y-145352438D02*
X108294643Y-145304819D01*
X108294643Y-145304819D02*
X108532738Y-145304819D01*
X108532738Y-145304819D02*
X108627976Y-145352438D01*
X108627976Y-145352438D02*
X108675595Y-145400057D01*
X108675595Y-145400057D02*
X108723214Y-145495295D01*
X108723214Y-145495295D02*
X108723214Y-145590533D01*
X108723214Y-145590533D02*
X108675595Y-145733390D01*
X108675595Y-145733390D02*
X108104167Y-146304819D01*
X108104167Y-146304819D02*
X108723214Y-146304819D01*
X113166666Y-101954819D02*
X113166666Y-102669104D01*
X113166666Y-102669104D02*
X113119047Y-102811961D01*
X113119047Y-102811961D02*
X113023809Y-102907200D01*
X113023809Y-102907200D02*
X112880952Y-102954819D01*
X112880952Y-102954819D02*
X112785714Y-102954819D01*
X113547619Y-101954819D02*
X114166666Y-101954819D01*
X114166666Y-101954819D02*
X113833333Y-102335771D01*
X113833333Y-102335771D02*
X113976190Y-102335771D01*
X113976190Y-102335771D02*
X114071428Y-102383390D01*
X114071428Y-102383390D02*
X114119047Y-102431009D01*
X114119047Y-102431009D02*
X114166666Y-102526247D01*
X114166666Y-102526247D02*
X114166666Y-102764342D01*
X114166666Y-102764342D02*
X114119047Y-102859580D01*
X114119047Y-102859580D02*
X114071428Y-102907200D01*
X114071428Y-102907200D02*
X113976190Y-102954819D01*
X113976190Y-102954819D02*
X113690476Y-102954819D01*
X113690476Y-102954819D02*
X113595238Y-102907200D01*
X113595238Y-102907200D02*
X113547619Y-102859580D01*
X136039580Y-115166666D02*
X136087200Y-115214285D01*
X136087200Y-115214285D02*
X136134819Y-115357142D01*
X136134819Y-115357142D02*
X136134819Y-115452380D01*
X136134819Y-115452380D02*
X136087200Y-115595237D01*
X136087200Y-115595237D02*
X135991961Y-115690475D01*
X135991961Y-115690475D02*
X135896723Y-115738094D01*
X135896723Y-115738094D02*
X135706247Y-115785713D01*
X135706247Y-115785713D02*
X135563390Y-115785713D01*
X135563390Y-115785713D02*
X135372914Y-115738094D01*
X135372914Y-115738094D02*
X135277676Y-115690475D01*
X135277676Y-115690475D02*
X135182438Y-115595237D01*
X135182438Y-115595237D02*
X135134819Y-115452380D01*
X135134819Y-115452380D02*
X135134819Y-115357142D01*
X135134819Y-115357142D02*
X135182438Y-115214285D01*
X135182438Y-115214285D02*
X135230057Y-115166666D01*
X136134819Y-114214285D02*
X136134819Y-114785713D01*
X136134819Y-114499999D02*
X135134819Y-114499999D01*
X135134819Y-114499999D02*
X135277676Y-114595237D01*
X135277676Y-114595237D02*
X135372914Y-114690475D01*
X135372914Y-114690475D02*
X135420533Y-114785713D01*
X119833333Y-143804819D02*
X119500000Y-143328628D01*
X119261905Y-143804819D02*
X119261905Y-142804819D01*
X119261905Y-142804819D02*
X119642857Y-142804819D01*
X119642857Y-142804819D02*
X119738095Y-142852438D01*
X119738095Y-142852438D02*
X119785714Y-142900057D01*
X119785714Y-142900057D02*
X119833333Y-142995295D01*
X119833333Y-142995295D02*
X119833333Y-143138152D01*
X119833333Y-143138152D02*
X119785714Y-143233390D01*
X119785714Y-143233390D02*
X119738095Y-143281009D01*
X119738095Y-143281009D02*
X119642857Y-143328628D01*
X119642857Y-143328628D02*
X119261905Y-143328628D01*
X120738095Y-142804819D02*
X120261905Y-142804819D01*
X120261905Y-142804819D02*
X120214286Y-143281009D01*
X120214286Y-143281009D02*
X120261905Y-143233390D01*
X120261905Y-143233390D02*
X120357143Y-143185771D01*
X120357143Y-143185771D02*
X120595238Y-143185771D01*
X120595238Y-143185771D02*
X120690476Y-143233390D01*
X120690476Y-143233390D02*
X120738095Y-143281009D01*
X120738095Y-143281009D02*
X120785714Y-143376247D01*
X120785714Y-143376247D02*
X120785714Y-143614342D01*
X120785714Y-143614342D02*
X120738095Y-143709580D01*
X120738095Y-143709580D02*
X120690476Y-143757200D01*
X120690476Y-143757200D02*
X120595238Y-143804819D01*
X120595238Y-143804819D02*
X120357143Y-143804819D01*
X120357143Y-143804819D02*
X120261905Y-143757200D01*
X120261905Y-143757200D02*
X120214286Y-143709580D01*
X116934876Y-134195619D02*
X117452971Y-134195619D01*
X117452971Y-134195619D02*
X117513923Y-134165142D01*
X117513923Y-134165142D02*
X117544400Y-134134666D01*
X117544400Y-134134666D02*
X117574876Y-134073714D01*
X117574876Y-134073714D02*
X117574876Y-133951809D01*
X117574876Y-133951809D02*
X117544400Y-133890857D01*
X117544400Y-133890857D02*
X117513923Y-133860380D01*
X117513923Y-133860380D02*
X117452971Y-133829904D01*
X117452971Y-133829904D02*
X116934876Y-133829904D01*
X117148209Y-133250857D02*
X117574876Y-133250857D01*
X116904400Y-133403238D02*
X117361542Y-133555619D01*
X117361542Y-133555619D02*
X117361542Y-133159428D01*
X126324405Y-112104819D02*
X126324405Y-111104819D01*
X126324405Y-111104819D02*
X126562500Y-111104819D01*
X126562500Y-111104819D02*
X126705357Y-111152438D01*
X126705357Y-111152438D02*
X126800595Y-111247676D01*
X126800595Y-111247676D02*
X126848214Y-111342914D01*
X126848214Y-111342914D02*
X126895833Y-111533390D01*
X126895833Y-111533390D02*
X126895833Y-111676247D01*
X126895833Y-111676247D02*
X126848214Y-111866723D01*
X126848214Y-111866723D02*
X126800595Y-111961961D01*
X126800595Y-111961961D02*
X126705357Y-112057200D01*
X126705357Y-112057200D02*
X126562500Y-112104819D01*
X126562500Y-112104819D02*
X126324405Y-112104819D01*
X127229167Y-111104819D02*
X127848214Y-111104819D01*
X127848214Y-111104819D02*
X127514881Y-111485771D01*
X127514881Y-111485771D02*
X127657738Y-111485771D01*
X127657738Y-111485771D02*
X127752976Y-111533390D01*
X127752976Y-111533390D02*
X127800595Y-111581009D01*
X127800595Y-111581009D02*
X127848214Y-111676247D01*
X127848214Y-111676247D02*
X127848214Y-111914342D01*
X127848214Y-111914342D02*
X127800595Y-112009580D01*
X127800595Y-112009580D02*
X127752976Y-112057200D01*
X127752976Y-112057200D02*
X127657738Y-112104819D01*
X127657738Y-112104819D02*
X127372024Y-112104819D01*
X127372024Y-112104819D02*
X127276786Y-112057200D01*
X127276786Y-112057200D02*
X127229167Y-112009580D01*
X125383333Y-128039580D02*
X125335714Y-128087200D01*
X125335714Y-128087200D02*
X125192857Y-128134819D01*
X125192857Y-128134819D02*
X125097619Y-128134819D01*
X125097619Y-128134819D02*
X124954762Y-128087200D01*
X124954762Y-128087200D02*
X124859524Y-127991961D01*
X124859524Y-127991961D02*
X124811905Y-127896723D01*
X124811905Y-127896723D02*
X124764286Y-127706247D01*
X124764286Y-127706247D02*
X124764286Y-127563390D01*
X124764286Y-127563390D02*
X124811905Y-127372914D01*
X124811905Y-127372914D02*
X124859524Y-127277676D01*
X124859524Y-127277676D02*
X124954762Y-127182438D01*
X124954762Y-127182438D02*
X125097619Y-127134819D01*
X125097619Y-127134819D02*
X125192857Y-127134819D01*
X125192857Y-127134819D02*
X125335714Y-127182438D01*
X125335714Y-127182438D02*
X125383333Y-127230057D01*
X126240476Y-127468152D02*
X126240476Y-128134819D01*
X126002381Y-127087200D02*
X125764286Y-127801485D01*
X125764286Y-127801485D02*
X126383333Y-127801485D01*
X130804819Y-115754166D02*
X130328628Y-116087499D01*
X130804819Y-116325594D02*
X129804819Y-116325594D01*
X129804819Y-116325594D02*
X129804819Y-115944642D01*
X129804819Y-115944642D02*
X129852438Y-115849404D01*
X129852438Y-115849404D02*
X129900057Y-115801785D01*
X129900057Y-115801785D02*
X129995295Y-115754166D01*
X129995295Y-115754166D02*
X130138152Y-115754166D01*
X130138152Y-115754166D02*
X130233390Y-115801785D01*
X130233390Y-115801785D02*
X130281009Y-115849404D01*
X130281009Y-115849404D02*
X130328628Y-115944642D01*
X130328628Y-115944642D02*
X130328628Y-116325594D01*
X129900057Y-115373213D02*
X129852438Y-115325594D01*
X129852438Y-115325594D02*
X129804819Y-115230356D01*
X129804819Y-115230356D02*
X129804819Y-114992261D01*
X129804819Y-114992261D02*
X129852438Y-114897023D01*
X129852438Y-114897023D02*
X129900057Y-114849404D01*
X129900057Y-114849404D02*
X129995295Y-114801785D01*
X129995295Y-114801785D02*
X130090533Y-114801785D01*
X130090533Y-114801785D02*
X130233390Y-114849404D01*
X130233390Y-114849404D02*
X130804819Y-115420832D01*
X130804819Y-115420832D02*
X130804819Y-114801785D01*
X105804819Y-108050594D02*
X104804819Y-108050594D01*
X104804819Y-108050594D02*
X104804819Y-107812499D01*
X104804819Y-107812499D02*
X104852438Y-107669642D01*
X104852438Y-107669642D02*
X104947676Y-107574404D01*
X104947676Y-107574404D02*
X105042914Y-107526785D01*
X105042914Y-107526785D02*
X105233390Y-107479166D01*
X105233390Y-107479166D02*
X105376247Y-107479166D01*
X105376247Y-107479166D02*
X105566723Y-107526785D01*
X105566723Y-107526785D02*
X105661961Y-107574404D01*
X105661961Y-107574404D02*
X105757200Y-107669642D01*
X105757200Y-107669642D02*
X105804819Y-107812499D01*
X105804819Y-107812499D02*
X105804819Y-108050594D01*
X105804819Y-106526785D02*
X105804819Y-107098213D01*
X105804819Y-106812499D02*
X104804819Y-106812499D01*
X104804819Y-106812499D02*
X104947676Y-106907737D01*
X104947676Y-106907737D02*
X105042914Y-107002975D01*
X105042914Y-107002975D02*
X105090533Y-107098213D01*
D11*
%TO.C,R11*%
X122735000Y-130772936D02*
X122735000Y-131227064D01*
X121265000Y-130772936D02*
X121265000Y-131227064D01*
%TO.C,R9*%
X119314564Y-127735000D02*
X118860436Y-127735000D01*
X119314564Y-126265000D02*
X118860436Y-126265000D01*
%TO.C,R6*%
X119860436Y-140265000D02*
X120314564Y-140265000D01*
X119860436Y-141735000D02*
X120314564Y-141735000D01*
%TO.C,C3*%
X98765000Y-105511252D02*
X98765000Y-104988748D01*
X100235000Y-105511252D02*
X100235000Y-104988748D01*
D12*
%TO.C,U2*%
X121150000Y-118675000D02*
X121150000Y-122375000D01*
X121150000Y-122375000D02*
X121400000Y-122375000D01*
X122550000Y-118675000D02*
X121150000Y-118675000D01*
X126450000Y-118675000D02*
X127850000Y-118675000D01*
X127850000Y-118675000D02*
X127850000Y-122375000D01*
X127850000Y-122375000D02*
X127600000Y-122375000D01*
D13*
X122300000Y-125125000D02*
G75*
G02*
X122100000Y-125125000I-100000J0D01*
G01*
X122100000Y-125125000D02*
G75*
G02*
X122300000Y-125125000I100000J0D01*
G01*
D11*
%TO.C,R1*%
X125265000Y-114185436D02*
X125265000Y-114639564D01*
X126735000Y-114185436D02*
X126735000Y-114639564D01*
D12*
%TO.C,S1*%
X106075000Y-110450000D02*
X118925000Y-110450000D01*
X106075000Y-112000000D02*
X106075000Y-110450000D01*
X106075000Y-117050000D02*
X106075000Y-115500000D01*
X118925000Y-110450000D02*
X118925000Y-112000000D01*
X118925000Y-115500000D02*
X118925000Y-117050000D01*
X118925000Y-117050000D02*
X106075000Y-117050000D01*
D13*
X119900000Y-113850000D02*
G75*
G02*
X119700000Y-113850000I-100000J0D01*
G01*
X119700000Y-113850000D02*
G75*
G02*
X119900000Y-113850000I100000J0D01*
G01*
D12*
%TO.C,U3*%
X90890000Y-127500000D02*
X97390000Y-127500000D01*
X90890000Y-145500000D02*
X90890000Y-127500000D01*
X97390000Y-145500000D02*
X90890000Y-145500000D01*
X115740000Y-145500000D02*
X116390000Y-145500000D01*
X116390000Y-127500000D02*
X115740000Y-127500000D01*
X116390000Y-129950000D02*
X116390000Y-127500000D01*
X116390000Y-145500000D02*
X116390000Y-143050000D01*
D13*
X98490000Y-146500000D02*
G75*
G02*
X98290000Y-146500000I-100000J0D01*
G01*
X98290000Y-146500000D02*
G75*
G02*
X98490000Y-146500000I100000J0D01*
G01*
D11*
%TO.C,C2*%
X102811252Y-103515000D02*
X102288748Y-103515000D01*
X102811252Y-104985000D02*
X102288748Y-104985000D01*
%TO.C,R10*%
X103814564Y-146765000D02*
X103360436Y-146765000D01*
X103814564Y-148235000D02*
X103360436Y-148235000D01*
D12*
%TO.C,U1*%
X128295000Y-113500000D02*
X128295000Y-116500000D01*
X130705000Y-113500000D02*
X130705000Y-116500000D01*
D13*
X130350000Y-112525000D02*
G75*
G02*
X130150000Y-112525000I-100000J0D01*
G01*
X130150000Y-112525000D02*
G75*
G02*
X130350000Y-112525000I100000J0D01*
G01*
D11*
%TO.C,C6*%
X99261252Y-148765000D02*
X98738748Y-148765000D01*
X99261252Y-150235000D02*
X98738748Y-150235000D01*
D13*
%TO.C,J2*%
X139030000Y-107350000D02*
X140280000Y-107350000D01*
X139030000Y-116290000D02*
X140280000Y-116290000D01*
X143000000Y-116290000D02*
X144280000Y-116290000D01*
X144280000Y-107350000D02*
X143000000Y-107350000D01*
X135780000Y-115070000D02*
G75*
G02*
X135580000Y-115070000I-100000J0D01*
G01*
X135580000Y-115070000D02*
G75*
G02*
X135780000Y-115070000I100000J0D01*
G01*
D11*
%TO.C,R8*%
X107685436Y-148765000D02*
X108139564Y-148765000D01*
X107685436Y-150235000D02*
X108139564Y-150235000D01*
%TO.C,R3*%
X102360436Y-105515000D02*
X102814564Y-105515000D01*
X102360436Y-106985000D02*
X102814564Y-106985000D01*
D13*
%TO.C,J1*%
X135705000Y-119710000D02*
X135705000Y-117440000D01*
X135705000Y-120350000D02*
X135705000Y-133760000D01*
X135705000Y-134400000D02*
X135705000Y-147810000D01*
X135705000Y-148450000D02*
X135705000Y-150700000D01*
X135705000Y-150700000D02*
X144755000Y-150700000D01*
X144755000Y-117440000D02*
X135705000Y-117440000D01*
X144755000Y-150700000D02*
X144755000Y-117440000D01*
X135705000Y-120350000D02*
G75*
G02*
X135705000Y-119710000I125001J320000D01*
G01*
X135705000Y-134400000D02*
G75*
G02*
X135705000Y-133760000I125001J320000D01*
G01*
X135705000Y-148450000D02*
G75*
G02*
X135705000Y-147810000I125001J320000D01*
G01*
X142200000Y-146860000D02*
G75*
G02*
X142000000Y-146860000I-100000J0D01*
G01*
X142000000Y-146860000D02*
G75*
G02*
X142200000Y-146860000I100000J0D01*
G01*
D14*
X144655000Y-136320000D02*
X143405000Y-136320000D01*
X143405000Y-131820000D01*
X144655000Y-131820000D01*
X144655000Y-136320000D01*
G36*
X144655000Y-136320000D02*
G01*
X143405000Y-136320000D01*
X143405000Y-131820000D01*
X144655000Y-131820000D01*
X144655000Y-136320000D01*
G37*
D11*
%TO.C,C5*%
X103811252Y-148765000D02*
X103288748Y-148765000D01*
X103811252Y-150235000D02*
X103288748Y-150235000D01*
%TO.C,C7*%
X99261252Y-146765000D02*
X98738748Y-146765000D01*
X99261252Y-148235000D02*
X98738748Y-148235000D01*
%TO.C,D2*%
X106252500Y-146540000D02*
X106252500Y-148460000D01*
X106252500Y-148460000D02*
X108937500Y-148460000D01*
X108937500Y-146540000D02*
X106252500Y-146540000D01*
D12*
%TO.C,J3*%
X110050000Y-103850000D02*
X117450000Y-103850000D01*
X110050000Y-109600000D02*
X110050000Y-103850000D01*
X117450000Y-103850000D02*
X117450000Y-109600000D01*
X117450000Y-109600000D02*
X110050000Y-109600000D01*
D13*
X118290000Y-107250000D02*
G75*
G02*
X118090000Y-107250000I-100000J0D01*
G01*
X118090000Y-107250000D02*
G75*
G02*
X118290000Y-107250000I100000J0D01*
G01*
D11*
%TO.C,C1*%
X133265000Y-114738748D02*
X133265000Y-115261252D01*
X134735000Y-114738748D02*
X134735000Y-115261252D01*
%TO.C,R5*%
X119772936Y-144265000D02*
X120227064Y-144265000D01*
X119772936Y-145735000D02*
X120227064Y-145735000D01*
D12*
%TO.C,U4*%
X117870000Y-135000000D02*
X117870000Y-133000000D01*
X120130000Y-135000000D02*
X120130000Y-133000000D01*
D13*
X118450000Y-135910000D02*
G75*
G02*
X118250000Y-135910000I-100000J0D01*
G01*
X118250000Y-135910000D02*
G75*
G02*
X118450000Y-135910000I100000J0D01*
G01*
D11*
%TO.C,D3*%
X126062500Y-110960000D02*
X128747500Y-110960000D01*
X128747500Y-109040000D02*
X126062500Y-109040000D01*
X128747500Y-110960000D02*
X128747500Y-109040000D01*
%TO.C,C4*%
X125811252Y-125265000D02*
X125288748Y-125265000D01*
X125811252Y-126735000D02*
X125288748Y-126735000D01*
%TO.C,R2*%
X131265000Y-115814564D02*
X131265000Y-115360436D01*
X132735000Y-115814564D02*
X132735000Y-115360436D01*
%TO.C,D1*%
X106040000Y-106312500D02*
X106040000Y-108997500D01*
X106040000Y-108997500D02*
X107960000Y-108997500D01*
X107960000Y-108997500D02*
X107960000Y-106312500D01*
%TD*%
M02*
