%TF.GenerationSoftware,KiCad,Pcbnew,8.0.6-8.0.6-0~ubuntu24.04.1*%
%TF.CreationDate,2024-10-24T11:21:35+02:00*%
%TF.ProjectId,Projet1,50726f6a-6574-4312-9e6b-696361645f70,rev?*%
%TF.SameCoordinates,Original*%
%TF.FileFunction,Soldermask,Bot*%
%TF.FilePolarity,Negative*%
%FSLAX46Y46*%
G04 Gerber Fmt 4.6, Leading zero omitted, Abs format (unit mm)*
G04 Created by KiCad (PCBNEW 8.0.6-8.0.6-0~ubuntu24.04.1) date 2024-10-24 11:21:35*
%MOMM*%
%LPD*%
G01*
G04 APERTURE LIST*
G04 Aperture macros list*
%AMRoundRect*
0 Rectangle with rounded corners*
0 $1 Rounding radius*
0 $2 $3 $4 $5 $6 $7 $8 $9 X,Y pos of 4 corners*
0 Add a 4 corners polygon primitive as box body*
4,1,4,$2,$3,$4,$5,$6,$7,$8,$9,$2,$3,0*
0 Add four circle primitives for the rounded corners*
1,1,$1+$1,$2,$3*
1,1,$1+$1,$4,$5*
1,1,$1+$1,$6,$7*
1,1,$1+$1,$8,$9*
0 Add four rect primitives between the rounded corners*
20,1,$1+$1,$2,$3,$4,$5,0*
20,1,$1+$1,$4,$5,$6,$7,0*
20,1,$1+$1,$6,$7,$8,$9,0*
20,1,$1+$1,$8,$9,$2,$3,0*%
G04 Aperture macros list end*
%ADD10RoundRect,0.102000X1.387500X1.387500X-1.387500X1.387500X-1.387500X-1.387500X1.387500X-1.387500X0*%
%ADD11C,2.979000*%
%ADD12C,0.504000*%
%ADD13C,0.650000*%
%ADD14O,2.304000X1.204000*%
%ADD15RoundRect,0.301000X0.701000X-0.301000X0.701000X0.301000X-0.701000X0.301000X-0.701000X-0.301000X0*%
%ADD16C,1.854000*%
%ADD17RoundRect,0.102000X-0.787500X-0.787500X0.787500X-0.787500X0.787500X0.787500X-0.787500X0.787500X0*%
%ADD18C,1.779000*%
%ADD19RoundRect,0.250000X-0.262500X-0.450000X0.262500X-0.450000X0.262500X0.450000X-0.262500X0.450000X0*%
G04 APERTURE END LIST*
D10*
%TO.C,S1*%
X117200000Y-113750000D03*
D11*
X112500000Y-113750000D03*
X107800000Y-113750000D03*
%TD*%
D12*
%TO.C,U3*%
X104045000Y-138417500D03*
X104045000Y-136582500D03*
X104962500Y-139335000D03*
X104962500Y-137500000D03*
X104962500Y-135665000D03*
X105880000Y-138417500D03*
X105880000Y-136582500D03*
X106797500Y-139335000D03*
X106797500Y-137500000D03*
X106797500Y-135665000D03*
X107715000Y-138417500D03*
X107715000Y-136582500D03*
%TD*%
D13*
%TO.C,J2*%
X138000000Y-114710000D03*
X138000000Y-108930000D03*
D14*
X137500000Y-116140000D03*
X137500000Y-107500000D03*
D15*
X141680000Y-116140000D03*
X141680000Y-107500000D03*
%TD*%
D16*
%TO.C,J1*%
X141500000Y-145500000D03*
X138960000Y-145500000D03*
X141500000Y-142960000D03*
X138960000Y-142960000D03*
X141500000Y-140420000D03*
X138960000Y-140420000D03*
X141500000Y-137880000D03*
X138960000Y-137880000D03*
X141500000Y-135340000D03*
X138960000Y-135340000D03*
X141500000Y-132800000D03*
X138960000Y-132800000D03*
X141500000Y-130260000D03*
X138960000Y-130260000D03*
X141500000Y-127720000D03*
X138960000Y-127720000D03*
X141500000Y-125180000D03*
X138960000Y-125180000D03*
X141500000Y-122640000D03*
X138960000Y-122640000D03*
%TD*%
D17*
%TO.C,J3*%
X115000000Y-107250000D03*
D18*
X112500000Y-107250000D03*
%TD*%
D19*
%TO.C,R7*%
X119675000Y-139000000D03*
X121500000Y-139000000D03*
%TD*%
%TO.C,R4*%
X113675000Y-149000000D03*
X115500000Y-149000000D03*
%TD*%
M02*
