%TF.GenerationSoftware,KiCad,Pcbnew,8.0.6-8.0.6-0~ubuntu24.04.1*%
%TF.CreationDate,2024-10-24T11:08:08+02:00*%
%TF.ProjectId,Projet1,50726f6a-6574-4312-9e6b-696361645f70,rev?*%
%TF.SameCoordinates,Original*%
%TF.FileFunction,Legend,Bot*%
%TF.FilePolarity,Positive*%
%FSLAX46Y46*%
G04 Gerber Fmt 4.6, Leading zero omitted, Abs format (unit mm)*
G04 Created by KiCad (PCBNEW 8.0.6-8.0.6-0~ubuntu24.04.1) date 2024-10-24 11:08:08*
%MOMM*%
%LPD*%
G01*
G04 APERTURE LIST*
%ADD10C,0.150000*%
%ADD11C,0.120000*%
G04 APERTURE END LIST*
D10*
X120754166Y-141104819D02*
X121087499Y-140628628D01*
X121325594Y-141104819D02*
X121325594Y-140104819D01*
X121325594Y-140104819D02*
X120944642Y-140104819D01*
X120944642Y-140104819D02*
X120849404Y-140152438D01*
X120849404Y-140152438D02*
X120801785Y-140200057D01*
X120801785Y-140200057D02*
X120754166Y-140295295D01*
X120754166Y-140295295D02*
X120754166Y-140438152D01*
X120754166Y-140438152D02*
X120801785Y-140533390D01*
X120801785Y-140533390D02*
X120849404Y-140581009D01*
X120849404Y-140581009D02*
X120944642Y-140628628D01*
X120944642Y-140628628D02*
X121325594Y-140628628D01*
X120420832Y-140104819D02*
X119754166Y-140104819D01*
X119754166Y-140104819D02*
X120182737Y-141104819D01*
X114754166Y-151104819D02*
X115087499Y-150628628D01*
X115325594Y-151104819D02*
X115325594Y-150104819D01*
X115325594Y-150104819D02*
X114944642Y-150104819D01*
X114944642Y-150104819D02*
X114849404Y-150152438D01*
X114849404Y-150152438D02*
X114801785Y-150200057D01*
X114801785Y-150200057D02*
X114754166Y-150295295D01*
X114754166Y-150295295D02*
X114754166Y-150438152D01*
X114754166Y-150438152D02*
X114801785Y-150533390D01*
X114801785Y-150533390D02*
X114849404Y-150581009D01*
X114849404Y-150581009D02*
X114944642Y-150628628D01*
X114944642Y-150628628D02*
X115325594Y-150628628D01*
X113897023Y-150438152D02*
X113897023Y-151104819D01*
X114135118Y-150057200D02*
X114373213Y-150771485D01*
X114373213Y-150771485D02*
X113754166Y-150771485D01*
D11*
%TO.C,R7*%
X120814564Y-138265000D02*
X120360436Y-138265000D01*
X120814564Y-139735000D02*
X120360436Y-139735000D01*
%TO.C,R4*%
X114814564Y-148265000D02*
X114360436Y-148265000D01*
X114814564Y-149735000D02*
X114360436Y-149735000D01*
%TD*%
M02*
