%TF.GenerationSoftware,KiCad,Pcbnew,8.0.6-8.0.6-0~ubuntu24.04.1*%
%TF.CreationDate,2024-10-24T11:07:56+02:00*%
%TF.ProjectId,Projet1,50726f6a-6574-4312-9e6b-696361645f70,rev?*%
%TF.SameCoordinates,Original*%
%TF.FileFunction,Copper,L2,Bot*%
%TF.FilePolarity,Positive*%
%FSLAX46Y46*%
G04 Gerber Fmt 4.6, Leading zero omitted, Abs format (unit mm)*
G04 Created by KiCad (PCBNEW 8.0.6-8.0.6-0~ubuntu24.04.1) date 2024-10-24 11:07:56*
%MOMM*%
%LPD*%
G01*
G04 APERTURE LIST*
G04 Aperture macros list*
%AMRoundRect*
0 Rectangle with rounded corners*
0 $1 Rounding radius*
0 $2 $3 $4 $5 $6 $7 $8 $9 X,Y pos of 4 corners*
0 Add a 4 corners polygon primitive as box body*
4,1,4,$2,$3,$4,$5,$6,$7,$8,$9,$2,$3,0*
0 Add four circle primitives for the rounded corners*
1,1,$1+$1,$2,$3*
1,1,$1+$1,$4,$5*
1,1,$1+$1,$6,$7*
1,1,$1+$1,$8,$9*
0 Add four rect primitives between the rounded corners*
20,1,$1+$1,$2,$3,$4,$5,0*
20,1,$1+$1,$4,$5,$6,$7,0*
20,1,$1+$1,$6,$7,$8,$9,0*
20,1,$1+$1,$8,$9,$2,$3,0*%
G04 Aperture macros list end*
%TA.AperFunction,ComponentPad*%
%ADD10R,2.775000X2.775000*%
%TD*%
%TA.AperFunction,ComponentPad*%
%ADD11C,2.775000*%
%TD*%
%TA.AperFunction,ComponentPad*%
%ADD12C,0.300000*%
%TD*%
%TA.AperFunction,ComponentPad*%
%ADD13O,2.100000X1.000000*%
%TD*%
%TA.AperFunction,ComponentPad*%
%ADD14RoundRect,0.250000X0.650000X-0.250000X0.650000X0.250000X-0.650000X0.250000X-0.650000X-0.250000X0*%
%TD*%
%TA.AperFunction,ComponentPad*%
%ADD15C,1.650000*%
%TD*%
%TA.AperFunction,ComponentPad*%
%ADD16R,1.575000X1.575000*%
%TD*%
%TA.AperFunction,ComponentPad*%
%ADD17C,1.575000*%
%TD*%
%TA.AperFunction,SMDPad,CuDef*%
%ADD18RoundRect,0.250000X-0.262500X-0.450000X0.262500X-0.450000X0.262500X0.450000X-0.262500X0.450000X0*%
%TD*%
%TA.AperFunction,ViaPad*%
%ADD19C,0.600000*%
%TD*%
%TA.AperFunction,Conductor*%
%ADD20C,0.200000*%
%TD*%
G04 APERTURE END LIST*
D10*
%TO.P,S1,1*%
%TO.N,unconnected-(S1-Pad1)*%
X117200000Y-113750000D03*
D11*
%TO.P,S1,2*%
%TO.N,VCC*%
X112500000Y-113750000D03*
%TO.P,S1,3*%
%TO.N,Net-(D1-Pad1)*%
X107800000Y-113750000D03*
%TD*%
D12*
%TO.P,U3,39_10,GND*%
%TO.N,GNDPWR*%
X104045000Y-138417500D03*
%TO.P,U3,39_11,GND*%
X104045000Y-136582500D03*
%TO.P,U3,39_12,GND*%
X104962500Y-139335000D03*
%TO.P,U3,39_13,GND*%
X104962500Y-137500000D03*
%TO.P,U3,39_14,GND*%
X104962500Y-135665000D03*
%TO.P,U3,39_15,GND*%
X105880000Y-138417500D03*
%TO.P,U3,39_16,GND*%
X105880000Y-136582500D03*
%TO.P,U3,39_17,GND*%
X106797500Y-139335000D03*
%TO.P,U3,39_18,GND*%
X106797500Y-137500000D03*
%TO.P,U3,39_19,GND*%
X106797500Y-135665000D03*
%TO.P,U3,39_20,GND*%
X107715000Y-138417500D03*
%TO.P,U3,39_21,GND*%
X107715000Y-136582500D03*
%TD*%
D13*
%TO.P,J2,SH1,SHELL_GND*%
%TO.N,GNDPWR*%
X137500000Y-116140000D03*
%TO.P,J2,SH2,SHELL_GND*%
X137500000Y-107500000D03*
D14*
%TO.P,J2,SH3,SHELL_GND*%
X141680000Y-116140000D03*
%TO.P,J2,SH4,SHELL_GND*%
X141680000Y-107500000D03*
%TD*%
D15*
%TO.P,J1,1*%
%TO.N,+3.3V*%
X141500000Y-145500000D03*
%TO.P,J1,2*%
%TO.N,Net-(J1-Pad12)*%
X138960000Y-145500000D03*
%TO.P,J1,3*%
%TO.N,Net-(J1-Pad13)*%
X141500000Y-142960000D03*
%TO.P,J1,4*%
%TO.N,Net-(J1-Pad14)*%
X138960000Y-142960000D03*
%TO.P,J1,5*%
%TO.N,Net-(J1-Pad15)*%
X141500000Y-140420000D03*
%TO.P,J1,6*%
%TO.N,unconnected-(J1-Pad6)*%
X138960000Y-140420000D03*
%TO.P,J1,7*%
%TO.N,GNDPWR*%
X141500000Y-137880000D03*
%TO.P,J1,8*%
X138960000Y-137880000D03*
%TO.P,J1,9*%
X141500000Y-135340000D03*
%TO.P,J1,10*%
X138960000Y-135340000D03*
%TO.P,J1,11*%
%TO.N,+3.3V*%
X141500000Y-132800000D03*
%TO.P,J1,12*%
%TO.N,Net-(J1-Pad12)*%
X138960000Y-132800000D03*
%TO.P,J1,13*%
%TO.N,Net-(J1-Pad13)*%
X141500000Y-130260000D03*
%TO.P,J1,14*%
%TO.N,Net-(J1-Pad14)*%
X138960000Y-130260000D03*
%TO.P,J1,15*%
%TO.N,Net-(J1-Pad15)*%
X141500000Y-127720000D03*
%TO.P,J1,16*%
%TO.N,unconnected-(J1-Pad16)*%
X138960000Y-127720000D03*
%TO.P,J1,17*%
%TO.N,GNDPWR*%
X141500000Y-125180000D03*
%TO.P,J1,18*%
X138960000Y-125180000D03*
%TO.P,J1,19*%
X141500000Y-122640000D03*
%TO.P,J1,20*%
X138960000Y-122640000D03*
%TD*%
D16*
%TO.P,J3,1,1*%
%TO.N,GNDPWR*%
X115000000Y-107250000D03*
D17*
%TO.P,J3,2,2*%
%TO.N,VCC*%
X112500000Y-107250000D03*
%TD*%
D18*
%TO.P,R7,1*%
%TO.N,Net-(U3-IO15)*%
X119675000Y-139000000D03*
%TO.P,R7,2*%
%TO.N,Net-(J1-Pad15)*%
X121500000Y-139000000D03*
%TD*%
%TO.P,R4,1*%
%TO.N,Net-(U3-IO14)*%
X113675000Y-149000000D03*
%TO.P,R4,2*%
%TO.N,Net-(J1-Pad12)*%
X115500000Y-149000000D03*
%TD*%
D19*
%TO.N,Net-(U3-SDI{slash}SD1)*%
X118000000Y-136500000D03*
X121000000Y-133500000D03*
%TO.N,GNDPWR*%
X109000000Y-137500000D03*
X114000000Y-141500000D03*
X113975000Y-103225000D03*
X136000000Y-107500000D03*
X135500000Y-115950000D03*
%TO.N,VCC*%
X117125000Y-109125000D03*
X109500000Y-104250000D03*
%TO.N,Net-(D1-Pad1)*%
X107800000Y-109050000D03*
%TO.N,Net-(U3-IO14)*%
X113500000Y-147000000D03*
%TO.N,Net-(U3-IO15)*%
X117500000Y-132000000D03*
%TD*%
D20*
%TO.N,Net-(U3-SDI{slash}SD1)*%
X119177756Y-140000000D02*
X118000000Y-138822244D01*
X120172244Y-140000000D02*
X119177756Y-140000000D01*
X121000000Y-133500000D02*
X120500000Y-134000000D01*
X120500000Y-134000000D02*
X120500000Y-139672244D01*
X120500000Y-139672244D02*
X120172244Y-140000000D01*
X118000000Y-138822244D02*
X118000000Y-136500000D01*
%TO.N,Net-(J1-Pad15)*%
X140085000Y-139005000D02*
X140085000Y-137379009D01*
X143000000Y-125089009D02*
X143000000Y-126220000D01*
X121795000Y-139295000D02*
X140375000Y-139295000D01*
X143000000Y-126220000D02*
X141500000Y-127720000D01*
X137835000Y-124714009D02*
X138549009Y-124000000D01*
X121500000Y-139000000D02*
X121795000Y-139295000D01*
X137835000Y-135805991D02*
X137835000Y-124714009D01*
X138494009Y-136465000D02*
X137835000Y-135805991D01*
X141910991Y-124000000D02*
X143000000Y-125089009D01*
X138549009Y-124000000D02*
X141910991Y-124000000D01*
X140375000Y-139295000D02*
X141500000Y-140420000D01*
X139170991Y-136465000D02*
X138494009Y-136465000D01*
X140085000Y-137379009D02*
X139170991Y-136465000D01*
X141500000Y-140420000D02*
X140085000Y-139005000D01*
%TO.N,GNDPWR*%
X113000000Y-141500000D02*
X109000000Y-137500000D01*
X141680000Y-116140000D02*
X141680000Y-122460000D01*
X140375000Y-126305000D02*
X140375000Y-134215000D01*
X113975000Y-103225000D02*
X115000000Y-104250000D01*
X137714594Y-115950000D02*
X135500000Y-115950000D01*
X114000000Y-141500000D02*
X113000000Y-141500000D01*
X141680000Y-107500000D02*
X141680000Y-116140000D01*
X141500000Y-125180000D02*
X140375000Y-126305000D01*
X140375000Y-134215000D02*
X141500000Y-135340000D01*
X137500000Y-107500000D02*
X141680000Y-107500000D01*
X115000000Y-104250000D02*
X115000000Y-107250000D01*
X137500000Y-107500000D02*
X136000000Y-107500000D01*
X141680000Y-116140000D02*
X137500000Y-116140000D01*
%TO.N,Net-(J1-Pad12)*%
X135460000Y-149000000D02*
X115500000Y-149000000D01*
X138960000Y-145500000D02*
X135460000Y-149000000D01*
%TO.N,Net-(J1-Pad13)*%
X142625000Y-131385000D02*
X141500000Y-130260000D01*
X142625000Y-141835000D02*
X142625000Y-131385000D01*
X141500000Y-142960000D02*
X142625000Y-141835000D01*
%TO.N,VCC*%
X112500000Y-107250000D02*
X112500000Y-113750000D01*
X112500000Y-107250000D02*
X109500000Y-104250000D01*
X112500000Y-113750000D02*
X117125000Y-109125000D01*
X117125000Y-109125000D02*
X117250000Y-109000000D01*
%TO.N,Net-(D1-Pad1)*%
X107800000Y-109050000D02*
X107800000Y-113750000D01*
%TO.N,Net-(U3-IO14)*%
X113500000Y-147000000D02*
X113500000Y-149000000D01*
%TO.N,Net-(U3-IO15)*%
X119675000Y-139000000D02*
X119675000Y-134175000D01*
X119675000Y-134175000D02*
X117500000Y-132000000D01*
%TD*%
M02*
